<?xml version="1.0" encoding="utf-8"?><svg xml:space="preserve" viewBox="0 0 100 100" y="0" x="0" xmlns="http://www.w3.org/2000/svg" id="圖層_1" version="1.1" width="96px" height="96px" xmlns:xlink="http://www.w3.org/1999/xlink" style="width:100%;height:100%;background-size:initial;background-repeat-y:initial;background-repeat-x:initial;background-position-y:initial;background-position-x:initial;background-origin:initial;background-image:initial;background-color:rgb(0, 0, 0);background-clip:initial;background-attachment:initial;animation-play-state:paused" ><g class="ldl-scale" style="transform-origin:50% 50%;transform:scale(1);animation-play-state:paused" ><path fill="#333" d="M78.198 39.435l7.96-6.804a40.146 40.146 0 0 0-11.102-13.893l-8.395 6.239a29.87 29.87 0 0 0-7.296-3.517l-.356-10.455C56.148 10.355 53.175 10 50.117 10s-6.031.355-8.892 1.004l-.356 10.456a29.872 29.872 0 0 0-7.296 3.517l-8.395-6.239a40.146 40.146 0 0 0-11.102 13.893l7.96 6.804a29.828 29.828 0 0 0-1.794 7.897l-10.124 2.677a39.831 39.831 0 0 0 3.948 17.34l10.286-1.982a30.134 30.134 0 0 0 5.054 6.324l-4.217 9.579a39.835 39.835 0 0 0 16.021 7.721l4.86-9.271c1.324.179 2.674.28 4.047.28s2.723-.101 4.047-.279l4.86 9.271a39.835 39.835 0 0 0 16.021-7.721l-4.217-9.579a30.16 30.16 0 0 0 5.054-6.324l10.286 1.982a39.831 39.831 0 0 0 3.948-17.34l-10.124-2.677a29.787 29.787 0 0 0-1.794-7.898zM50 70c-11.046 0-20-8.954-20-20s8.954-20 20-20 20 8.954 20 20-8.954 20-20 20z" style="fill:rgb(255, 255, 255);animation-play-state:paused" ></path>
<path fill="#f8b26a" d="M60.678 60.884c3.567-3.567 4.981-8.46 4.268-13.09-.091-.589-.822-.821-1.243-.4l-9.189 9.188a2.411 2.411 0 0 1-2.329.624l-6.049-1.621a2.412 2.412 0 0 1-1.705-1.705l-1.621-6.049a2.411 2.411 0 0 1 .624-2.329l9.188-9.188c.423-.423.188-1.154-.403-1.245-5.023-.771-10.353.959-13.965 5.224-4.063 4.798-4.622 11.62-1.764 17.001L11.626 78.386a7.077 7.077 0 1 0 10.003 10.003l21.089-24.86c5.767 3.09 13.095 2.22 17.96-2.645zM14.314 85.702a3.333 3.333 0 1 1 4.715-4.713 3.333 3.333 0 0 1-4.715 4.713z" style="fill:rgb(255, 255, 255);animation-play-state:paused" ></path>
<metadata xmlns:d="https://loading.io/stock/" style="animation-play-state:paused" ><d:name style="animation-play-state:paused" >wrench</d:name>
<d:tags style="animation-play-state:paused" >config,setting,machinary,profile,setup,edit,asembly,wrench,gear</d:tags>
<d:license style="animation-play-state:paused" >by</d:license>
<d:slug style="animation-play-state:paused" >5fru9q</d:slug></metadata></g><!-- generated by https://loading.io/ --></svg>