<?xml version="1.0" encoding="utf-8"?><svg xml:space="preserve" viewBox="0 0 100 100" y="0" x="0" xmlns="http://www.w3.org/2000/svg" id="圖層_1" version="1.1" width="44px" height="44px" xmlns:xlink="http://www.w3.org/1999/xlink" style="width:100%;height:100%;background-size:initial;background-repeat-y:initial;background-repeat-x:initial;background-position-y:initial;background-position-x:initial;background-origin:initial;background-image:initial;background-color:rgb(0, 0, 0);background-clip:initial;background-attachment:initial;animation-play-state:paused" ><g class="ldl-scale" style="transform-origin:50% 50%;transform:scale(1);animation-play-state:paused" ><g style="animation-play-state:paused" ><path stroke-miterlimit="10" stroke-linejoin="round" stroke-linecap="round" stroke-width="3.5" stroke="#333" fill="#e0e0e0" d="M50.429 18.035c-7.779-3.799-13.753-4.328-19.977 1.72L20.38 29.828l.441.441a3.383 3.383 0 0 1 0 4.784l-.504.504a3.383 3.383 0 0 1-4.784 0h0L11 40.089l10.828 10.828 4.533-4.533a3.383 3.383 0 0 1 0-4.784l.504-.504a3.383 3.383 0 0 1 4.784 0l.441.441 2.392-2.392 11.961 11.961 4.784-4.784L39.265 34.36l2.896-2.896-5.274-5.274c5.833-5.473 8.741-4.934 13.507-5.867 1.11-.218 1.132-1.752.035-2.288z" style="stroke:rgb(255, 255, 255);fill:rgb(255, 255, 255);animation-play-state:paused" ></path>
<path stroke-miterlimit="10" stroke-linejoin="round" stroke-linecap="round" stroke-width="3.5" stroke="#333" fill="#e15b64" d="M83.801 78.4l-5.029 5.029a1.553 1.553 0 0 1-2.197 0L41.221 48.073a1.553 1.553 0 0 1 0-2.197l5.029-5.029a1.553 1.553 0 0 1 2.197 0l35.355 35.355a1.555 1.555 0 0 1-.001 2.198z" style="stroke:rgb(255, 255, 255);fill:rgb(255, 255, 255);animation-play-state:paused" ></path></g>
<g style="animation-play-state:paused" ><path stroke-miterlimit="10" stroke-linejoin="round" stroke-width="3.5" stroke="#333" fill="#e0e0e0" d="M44.544 68.945l26.112-26.112c4.294 1.976 9.195 1.451 13.068-2.422 3.922-3.922 6.145-7.792 4.954-11.564l-9.901 7.001c-1.96 1.96-8.481-4.56-6.521-6.521l10.104-7.145c-5.294-2.945-12.458-3.811-16.567.298-3.874 3.874-4.398 8.775-2.422 13.068L37.26 61.661c-4.294-1.976-9.195-1.451-13.068 2.422-3.922 3.922-6.144 7.792-4.954 11.564l9.901-7.001c1.96-1.96 8.481 4.56 6.521 6.521l-10.104 7.145c5.294 2.945 12.458 3.811 16.567-.298 3.872-3.874 4.397-8.776 2.421-13.069z" style="stroke:rgb(255, 255, 255);fill:rgb(255, 255, 255);animation-play-state:paused" ></path>
<path d="M65.675 40.529L42.241 63.964" stroke-miterlimit="10" stroke-linejoin="round" stroke-linecap="round" stroke-width="3.5" stroke="#333" fill="none" style="stroke:rgb(255, 255, 255);animation-play-state:paused" ></path></g>
<metadata xmlns:d="https://loading.io/stock/" style="animation-play-state:paused" ><d:name style="animation-play-state:paused" >hand tool</d:name>


<d:tags style="animation-play-state:paused" >hand tool,toolkit,toolbox,industry,workshop,factory,engineer,fix,setting,config,repair,warranty</d:tags>


<d:license style="animation-play-state:paused" >by</d:license>


<d:slug style="animation-play-state:paused" >pij8wm</d:slug></metadata></g><!-- generated by https://loading.io/ --></svg>