<svg version="1.1" xmlns="http://www.w3.org/2000/svg" xmlns:xlink="http://www.w3.org/1999/xlink" x="0px" y="0px" viewBox="0 0 24 24" xml:space="preserve" height="24" width="24"><title>dashboard level</title><g class="nc-icon-wrapper" fill="#ffffff"><path fill="#ffffff" d="M12 0c-6.62 0-12 5.38-12 12s5.38 12 12 12 12-5.38 12-12-5.38-12-12-12z m10.46 12.75a10.41 10.41 0 0 1-0.99 3.75h-18.94a10.38 10.38 0 0 1-0.99-3.75h2.21v-1.5h-2.21a10.44 10.44 0 0 1 2.53-6.12l1.57 1.57 1.06-1.06-1.57-1.57a10.44 10.44 0 0 1 6.12-2.53v2.21h1.5v-2.21a10.44 10.44 0 0 1 6.12 2.53l-1.57 1.57 1.06 1.06 1.57-1.57a10.44 10.44 0 0 1 2.53 6.12h-2.21v1.5h2.21z"/><path data-color="color-2" d="M8.91 5.16s1.38 6.7 1.72 7.46a1.5 1.5 0 0 0 2.74-1.24c-0.34-0.76-4.45-6.22-4.46-6.22z"/></g></svg>