<svg xmlns="http://www.w3.org/2000/svg" width="24" height="24" viewBox="0 0 24 24"><title>ic_train_48px</title><g class="nc-icon-wrapper" fill="#ffffff"><path d="M12 2c-4 0-8 0.5-8 4v9.5a3.5 3.5 0 0 0 3.5 3.5l-1.5 1.5v0.5h2.23l2-2h3.77l2 2h2v-0.5l-1.5-1.5c1.93 0 3.5-1.57 3.5-3.5v-9.5c0-3.5-3.58-4-8-4z m-4.5 15c-0.83 0-1.5-0.67-1.5-1.5s0.67-1.5 1.5-1.5 1.5 0.67 1.5 1.5-0.67 1.5-1.5 1.5z m3.5-7h-5v-4h5v4z m2 0v-4h5v4h-5z m3.5 7c-0.83 0-1.5-0.67-1.5-1.5s0.67-1.5 1.5-1.5 1.5 0.67 1.5 1.5-0.67 1.5-1.5 1.5z"/></g></svg>