<svg version="1.1" xmlns="http://www.w3.org/2000/svg" xmlns:xlink="http://www.w3.org/1999/xlink" x="0px" y="0px" viewBox="0 0 18 18" xml:space="preserve" width="18" height="18"><title>handout</title><g class="nc-icon-wrapper" fill="#000000"><path data-color="color-2" d="M12.54 5.32a1.9 1.9 0 1 0 0 3.8 1.9 1.9 0 1 0 0-3.8z"/><path data-color="color-2" d="M7.22 1.52a1.9 1.9 0 1 0 0 3.8 1.9 1.9 0 1 0 0-3.8z"/><path fill="#000000" d="M16.34 13.02l-6.65 0.58a3.04 3.04 0 0 1-1.77-0.39l-1.84-1.05h4.28a1.04 1.04 0 1 0 0.19-2.06l-3.84-0.72a15.2 15.2 0 0 0-2.8-0.26h-3.15v5.5l6.25 2.61c0.69 0.26 1.46 0.26 2.16 0.08l8.31-3.25a1.04 1.04 0 0 0-1.14-1.04z"/></g></svg>