<svg xmlns="http://www.w3.org/2000/svg" width="96" height="96" viewBox="0 0 96 96"><title>ic_drive_eta_48px</title><g class="nc-icon-wrapper" fill="#ffffff"><path d="M75.68 20.04a6.01 6.01 0 0 0-5.68-4.04h-44c-2.62 0-4.86 1.68-5.68 4.04l-8.32 23.96v32c0 2.2 1.8 4 4 4h4a4 4 0 0 0 4-4v-4h48v4c0 2.2 1.8 4 4 4h4a4 4 0 0 0 4-4v-32l-8.32-23.96z m-49.68 39.96c-3.32 0-6-2.68-6-6s2.68-6 6-6 6 2.68 6 6-2.68 6-6 6z m44 0c-3.32 0-6-2.68-6-6s2.68-6 6-6 6 2.68 6 6-2.68 6-6 6z m-50-20l6-18h44l6 18h-56z"/></g></svg>