<svg xmlns="http://www.w3.org/2000/svg" width="24" height="24" viewBox="0 0 24 24"><title>ic_call_end_48px</title><g class="nc-icon-wrapper" fill="#000000"><path d="M12 9c-1.6 0-3.15 0.25-4.6 0.72v3.1c0 0.4-0.23 0.73-0.56 0.9-0.97 0.49-1.87 1.11-2.67 1.85-0.18 0.17-0.42 0.28-0.7 0.29-0.28 0-0.53-0.11-0.7-0.3l-2.47-2.47c-0.18-0.18-0.29-0.43-0.3-0.71 0-0.28 0.11-0.53 0.3-0.71 3.04-2.89 7.17-4.67 11.7-4.67s8.66 1.77 11.71 4.67c0.18 0.18 0.29 0.43 0.29 0.71 0 0.28-0.11 0.53-0.29 0.7l-2.48 2.48c-0.18 0.18-0.43 0.29-0.7 0.29-0.27 0-0.52-0.11-0.7-0.28a11.6 11.6 0 0 0-2.67-1.85 1.01 1.01 0 0 1-0.56-0.9v-3.1a15.04 15.04 0 0 0-4.6-0.72z"/></g></svg>