<svg xmlns="http://www.w3.org/2000/svg" width="18" height="18" viewBox="0 0 18 18"><title>ic_ac_unit_24px</title><g class="nc-icon-wrapper" fill="#000000"><path d="M16.5 8.25h-3.13l2.43-2.43-1.05-1.06-3.5 3.49h-1.5v-1.5l3.5-3.5-1.07-1.05-2.43 2.43v-3.13h-1.5v3.13l-2.43-2.43-1.07 1.06 3.5 3.49v1.5h-1.5l-3.5-3.5-1.05 1.07 2.43 2.43h-3.13v1.5h3.13l-2.43 2.43 1.05 1.06 3.5-3.49h1.5v1.5l-3.5 3.49 1.07 1.06 2.43-2.43v3.13h1.5v-3.13l2.43 2.43 1.06-1.06-3.49-3.49v-1.5h1.5l3.49 3.49 1.06-1.06-2.43-2.43h3.13z"/></g></svg>