<svg xmlns="http://www.w3.org/2000/svg" width="18" height="18" viewBox="0 0 18 18"><title>ic_time_to_leave_48px</title><g class="nc-icon-wrapper" fill="#000000"><path d="M14.38 3.81a1.14 1.14 0 0 0-1.08-0.77h-8.36c-0.5 0-0.92 0.32-1.08 0.77l-1.58 4.55v6.08c0 0.42 0.34 0.76 0.76 0.76h0.76a0.76 0.76 0 0 0 0.76-0.76v-0.76h9.12v0.76c0 0.42 0.34 0.76 0.76 0.76h0.76a0.76 0.76 0 0 0 0.76-0.76v-6.08l-1.58-4.55z m-9.44 7.59c-0.63 0-1.14-0.51-1.14-1.14s0.51-1.14 1.14-1.14 1.14 0.51 1.14 1.14-0.51 1.14-1.14 1.14z m8.36 0c-0.63 0-1.14-0.51-1.14-1.14s0.51-1.14 1.14-1.14 1.14 0.51 1.14 1.14-0.51 1.14-1.14 1.14z m-9.5-3.8l1.14-3.42h8.36l1.14 3.42h-10.64z"/></g></svg>