<svg xmlns="http://www.w3.org/2000/svg" width="28" height="28" viewBox="0 0 30 30"><title>ic_visibility_48px</title><g class="nc-icon-wrapper" fill="#000000"><path d="M14.94 5.6c-6.22 0-11.54 3.88-13.69 9.34 2.15 5.46 7.47 9.34 13.69 9.34 6.23 0 11.54-3.88 13.69-9.34-2.15-5.46-7.46-9.34-13.69-9.34z m0 15.57c-3.44 0-6.22-2.79-6.22-6.23s2.79-6.22 6.22-6.22 6.22 2.79 6.22 6.22-2.79 6.22-6.22 6.23z m0-9.96c-2.06 0-3.73 1.68-3.73 3.73s1.68 3.73 3.73 3.74 3.73-1.68 3.73-3.74-1.68-3.73-3.73-3.73z"/></g></svg>